<?xml version="1.0" encoding="UTF-8"?><svg xmlns="http://www.w3.org/2000/svg" viewBox="0 0 145.4 88.91"><defs><style>.f{fill:#f05d82;}.g{fill:#eb407c;opacity:.3;}</style></defs><g id="a"/><g id="b"><path class="f" d="M137.19,38.75c-8.33,6.6-14.01,3.67-21.94-1.54,2.64-3.58,8.95-14.46,13.34-9.67,.84,.92,2.02,.39,2.3-.58,.1-.41,0-.88-.42-1.27-1.67-1.56-3.31-1.99-4.87-1.72-4.83,.92-8.78,7.49-11.96,12.04-9.85-5.52-21.12-15.61-32.01-20.68,.34-4.23-.26-13.05-.32-12.79-2.53,3.38-4.48,7.15-6.08,11.05h0c-10.74-2.22-20.44,1.61-23.1,4.62-2.16,2.45,.63,5.98,3.96,4.08,5.46-3.1,11.3-2.99,16.82-1.87-1.15,4.12-1.97,8.35-2.15,12.63-1.87,2.08-4.02,3.89-6.39,5.38-1.22-4.6-2.58-8.5-4.53-12.6,0-.02-4.76,.77-4.77,.77-3.85,6.38-13.75,7.67-20.9,9.03l-.31,.25c.07-.08,.15-.16,.22-.24-8.79,2.12-25.54-1.31-27.49,10.9-.21,3.6,3.94,10.12,6.94,6.49h-.01c1.47-2.65-2.8-4.57-3.82-1.74-2.44-4.27,.34-9.76,4.8-10.45,4.44-1.14,9.09-.26,13.67-.36l-.02,.02c.41-.03,1.03,0,1.47,0l.04-.04c1.36-.03,3.28-.08,4.32-.11l-.02,.02c7.72-.63,16.18-1.51,22.23-6.83,.46,2.79,.92,5.57,1.34,8.35-8.84,3.97-20.51,5.01-26.66,13.42-4.5,7.01-4.06,16.2,.22,23.09,8.14,12.37,24.65,3.77,31.44-5.58,5.46-8.95,4.72-20.21,2.84-30.14,2-1.24,3.88-2.66,5.6-4.31,.58,5.77,3.31,11.38,8.12,14.76,4.3,3.07,9.77,5.74,15.23,4.73,8.93-1.96,13.56-10.37,18.45-17.14l-.08,.13c10,4.92,17.45,8.17,24.83-1.78,.16-.19-.13-.47-.31-.31ZM49.26,79.03c-17.81,12.92-29.79-19.59-6.98-27.16,5.28-1.78,10.67-3.35,15.86-5.53,1.62,12.31,2.38,24.43-8.88,32.69Zm61.86-38.97c-5.68,8.54-15.55,19.83-24.15,11.73-2.01-1.89-3.31-4.41-3.98-7.09-1.71-6.91-1.53-14.45-1.57-21.52,10.82,4.81,19.39,11.51,29.69,16.87"/><circle class="f" cx="55.14" cy="20.73" r="3.93"/><circle class="g" cx="68.75" cy="49.75" r="36"/></g><g id="c"/><g id="d"/><g id="e"/></svg>